<?xml version="1.0" encoding="iso-8859-1"?>
<!-- Generator: Adobe Illustrator 19.0.0, SVG Export Plug-In . SVG Version: 6.00 Build 0)  -->
<svg version="1.1" id="Capa_1" xmlns="http://www.w3.org/2000/svg" xmlns:xlink="http://www.w3.org/1999/xlink" x="0px" y="0px"
	 viewBox="0 0 512 512" style="enable-background:new 0 0 512 512;" xml:space="preserve">
<path style="fill:#32D736;" d="M443.5,15.099C441.7,3.1,426.7-2.001,418.001,6.7L387.1,37.599C347.5,13.599,302.5,0,256,0
	C116.499,0,3.6,110.2,0,249.399c0,7.8,5.4,14.401,12.9,15.3l61,8.699c9,1.201,17.1-5.698,17.1-15
	c-0.601-44.7,16.199-86.398,47.701-118.198C169.9,108.399,211.601,91,256,91c22.2,0,44.399,4.499,64.501,13.2l-29.702,29.7
	c-8.699,8.699-3.6,23.699,8.401,25.499L447.7,180.7c9.899,1.5,18.6-7.2,17.1-17.1L443.5,15.099z"/>
<path style="fill:#FD003A;" d="M499.1,248.5l-61-8.701c-8.1-0.899-17.1,6-17.1,16.201c0,90.899-74.099,165-165,165
	c-22.2,0-44.099-4.501-64.2-13.2l28.801-28.801c8.699-8.699,3.6-23.699-8.699-25.199L63.401,332.5c-9.6-1.5-18.301,6.899-16.8,16.8
	L67.9,497.8c1.501,12.299,16.501,17.401,25.201,8.699l31.8-31.8C164.5,498.399,209.5,512,256,512c138.9,0,251.8-109.6,256-248.2
	C512,256,506.6,249.399,499.1,248.5z"/>
<path style="fill:#10BB67;" d="M320.501,104.2C300.399,95.499,278.2,91,256,91V0c46.5,0,91.5,13.599,131.1,37.599L418.001,6.7
	C426.7-2.001,441.7,3.1,443.5,15.099l21.301,148.5c1.5,9.901-7.202,18.6-17.1,17.1l-148.5-21.301
	c-12.001-1.8-17.1-16.8-8.401-25.499L320.501,104.2z"/>
<path style="fill:#E50027;" d="M512,263.8C507.8,402.4,394.9,512,256,512v-91c90.901,0,165-74.101,165-165
	c0-10.201,9-17.1,17.1-16.201l61,8.701C506.6,249.399,512,256,512,263.8z"/>
<g>
</g>
<g>
</g>
<g>
</g>
<g>
</g>
<g>
</g>
<g>
</g>
<g>
</g>
<g>
</g>
<g>
</g>
<g>
</g>
<g>
</g>
<g>
</g>
<g>
</g>
<g>
</g>
<g>
</g>
</svg>
